<svg width="22" height="22" viewBox="0 0 22 22" fill="none" xmlns="http://www.w3.org/2000/svg">
<path d="M18.8949 10.9155H14.8907C14.4027 10.9155 13.97 11.2178 13.8204 11.6648C13.4237 12.8473 12.2899 13.6411 11.0002 13.6411C9.71014 13.6411 8.5767 12.8473 8.18026 11.6648C8.03022 11.2178 7.59792 10.9155 7.10952 10.9155H3.10552C2.48402 10.9155 1.98022 11.3995 1.98022 11.9977V18.1696C1.98022 18.7667 2.48402 19.2513 3.10552 19.2513H18.8951C19.5171 19.2513 20.0202 18.7667 20.0202 18.1696V11.9977C20.02 11.3995 19.5166 10.9155 18.8949 10.9155Z" fill="#D0D0D0"/>
<path d="M7.8782 7.54085H9.34186V11.3222C9.34186 11.4839 9.4776 11.6139 9.64458 11.6139H12.3543C12.522 11.6139 12.657 11.4839 12.657 11.3222V7.54085H14.1218C14.2349 7.54085 14.3387 7.47947 14.3904 7.38333C14.416 7.33608 14.4275 7.28248 14.4235 7.2289C14.4195 7.17532 14.4003 7.124 14.368 7.08105L11.2358 2.87069C11.207 2.83272 11.1698 2.80197 11.1271 2.78086C11.0844 2.75974 11.0373 2.74885 10.9897 2.74903H10.989C10.8911 2.74903 10.8 2.79457 10.7428 2.87179L7.63092 7.08127C7.59901 7.1244 7.58001 7.17571 7.57611 7.22922C7.57222 7.28273 7.58359 7.33625 7.60892 7.38355C7.66062 7.48057 7.76512 7.54085 7.8782 7.54085Z" fill="#D0D0D0"/>
</svg>
